<?xml version="1.0" encoding="UTF-8" standalone="no"?>
<!-- Created with Inkscape (http://www.inkscape.org/) -->

<svg
   version="1.1"
   id="svg1"
   width="8296.293"
   height="4666.6665"
   viewBox="0 0 8296.293 4666.6665"
   sodipodi:docname="vecteezy_abstract-wavy-line-background-wavy-pattern-stylish-line_47128270.eps"
   xmlns:inkscape="http://www.inkscape.org/namespaces/inkscape"
   xmlns:sodipodi="http://sodipodi.sourceforge.net/DTD/sodipodi-0.dtd"
   xmlns="http://www.w3.org/2000/svg"
   xmlns:svg="http://www.w3.org/2000/svg">
  <defs
     id="defs1" />
  <sodipodi:namedview
     id="namedview1"
     pagecolor="#00000000"
     bordercolor="#000000"
     borderopacity="0.25"
     inkscape:showpageshadow="2"
     inkscape:pageopacity="0.0"
     inkscape:pagecheckerboard="0"
     inkscape:deskcolor="#d1d1d1">
    <inkscape:page
       x="0"
       y="0"
       inkscape:label="1"
       id="page1"
       width="8296.293"
       height="4666.6665"
       margin="0"
       bleed="0" />
  </sodipodi:namedview>
  <g
     id="g1"
     inkscape:groupmode="layer"
     inkscape:label="1">
    <g
       id="group-R5">
      <path
         id="path2"
         d="M 62222.2,0 H -0.00390625 V 35000 H 62222.2 V 0"
         style="fill:#00000000;fill-opacity:1;fill-rule:nonzero;stroke:none"
         transform="matrix(0.13333333,0,0,-0.13333333,0,4666.6667)" />
      <path
         id="path3"
         d="m 98511.1,7900 c -19215.3,5536.6 -31806.5,9072.9 -39950,11330 -2592.6,718.6 -4732.9,1288.4 -7570,930 C 38315.6,18558.6 34084.4,1251 26801.1,2280 c -4707.3,665.1 -4894.3,8171.2 -9850,9240 C 11216.8,12756.8 4503.91,4208.3 -248.891,-3160"
         style="fill:none;stroke:#36b2ff;stroke-width:50;stroke-linecap:butt;stroke-linejoin:miter;stroke-miterlimit:10;stroke-dasharray:none;stroke-opacity:1"
         transform="matrix(0.13333333,0,0,-0.13333333,0,4666.6667)" />
      <path
         id="path4"
         d="M -522.789,-2664.9 C 4254.96,4702.5 10986.6,13216 16759.4,11979.5 21825.2,10898 22030.5,3248.7 26830.6,2579.3 c 7358.4,-1029 11595.7,16331.2 24472.5,18061.2 2889.2,389.5 5077.1,-163.6 7646.5,-856.6 8177,-2205.4 20655.6,-5708.7 39508.1,-11160.5"
         style="fill:none;stroke:#36b2ff;stroke-width:50;stroke-linecap:butt;stroke-linejoin:miter;stroke-miterlimit:10;stroke-dasharray:none;stroke-opacity:1"
         transform="matrix(0.13333333,0,0,-0.13333333,0,4666.6667)" />
      <path
         id="path5"
         d="M -796.691,-2169.8 C 4006.01,5196.8 10756.5,13675.3 16567.7,12439 21743.6,11344.8 21967.2,3552.3 26860.1,2878.5 34293.6,1849.6 38537,19262.3 51615,21121 c 2941.4,420.7 5177.1,-115.5 7723.2,-783.2 8210.8,-2153.2 20576.3,-5624 39066.1,-10991"
         style="fill:none;stroke:#36b2ff;stroke-width:50;stroke-linecap:butt;stroke-linejoin:miter;stroke-miterlimit:10;stroke-dasharray:none;stroke-opacity:1"
         transform="matrix(0.13333333,0,0,-0.13333333,0,4666.6667)" />
      <path
         id="path6"
         d="M -1070.6,-1674.6 C 3757.05,5691.1 10526.3,14134.6 16376,12898.5 21662,11791.7 21904,3856 26889.6,3177.8 34398.2,2148.9 38647.7,19614.2 51927,21601.5 c 2993.5,451.8 5277.1,-67.1 7799.7,-709.8 8245.2,-2100.6 20497.1,-5539.2 38624.2,-10821.5"
         style="fill:none;stroke:#36b2ff;stroke-width:50;stroke-linecap:butt;stroke-linejoin:miter;stroke-miterlimit:10;stroke-dasharray:none;stroke-opacity:1"
         transform="matrix(0.13333333,0,0,-0.13333333,0,4666.6667)" />
      <path
         id="path7"
         d="m -1344.5,-1179.5 c 4852.6,7364.8 11640.7,15773.3 17528.8,14537.5 5396.1,-1119.5 5656.4,-9198.4 10734.9,-9880.9 7583.6,-1028.9 11839.2,16489 25319.7,18604.9 3045.8,482.9 5377.3,-18.4 7876.4,-636.4 8279.9,-2047.6 20417.8,-5454.5 38182.2,-10651.9"
         style="fill:none;stroke:#36b2ff;stroke-width:50;stroke-linecap:butt;stroke-linejoin:miter;stroke-miterlimit:10;stroke-dasharray:none;stroke-opacity:1"
         transform="matrix(0.13333333,0,0,-0.13333333,0,4666.6667)" />
      <path
         id="path8"
         d="M -1618.4,-684.398 C 3259.14,6679.6 10066,15053.1 15992.6,13817.6 21498.8,12685.4 21777.4,4463.3 26948.7,3776.3 c 7658.7,-1028.8 11920.4,16541.6 25602.2,18786.1 3097.9,514.1 5477.6,30.7 7952.9,-562.9 8315.1,-1994 20338.7,-5369.8 37740.2,-10482.4"
         style="fill:none;stroke:#36b2ff;stroke-width:50;stroke-linecap:butt;stroke-linejoin:miter;stroke-miterlimit:10;stroke-dasharray:none;stroke-opacity:1"
         transform="matrix(0.13333333,0,0,-0.13333333,0,4666.6667)" />
      <path
         id="path9"
         d="M -1892.3,-189.301 C 3010.19,7173.9 9835.88,15512.3 15800.9,14277.1 21417.1,13132.2 21714.2,4766.9 26978.2,4075.6 c 7733.9,-1028.8 12001.6,16594.2 25884.6,18967.3 3150.1,545.2 5578.1,80 8029.5,-489.5 8350.6,-1939.8 20259.5,-5285.1 37298.3,-10312.9"
         style="fill:none;stroke:#36b2ff;stroke-width:50;stroke-linecap:butt;stroke-linejoin:miter;stroke-miterlimit:10;stroke-dasharray:none;stroke-opacity:1"
         transform="matrix(0.13333333,0,0,-0.13333333,0,4666.6667)" />
      <path
         id="path10"
         d="M -2166.21,305.801 C 2761.24,7668.1 9605.73,15971.6 15609.2,14736.6 21335.5,13579 21650.9,5070.5 27007.7,4374.9 c 7809,-1028.8 12082.8,16646.8 26167.1,19148.5 3202.2,576.3 5678.6,129.6 8106.1,-416.1 8386.5,-1885.1 20180.2,-5200.4 36856.3,-10143.4"
         style="fill:none;stroke:#36b2ff;stroke-width:50;stroke-linecap:butt;stroke-linejoin:miter;stroke-miterlimit:10;stroke-dasharray:none;stroke-opacity:1"
         transform="matrix(0.13333333,0,0,-0.13333333,0,4666.6667)" />
      <path
         id="path11"
         d="M -2440.11,801 C 2512.28,8162.4 9375.58,16430.8 15417.5,15196.1 21253.9,14025.9 21587.6,5374.2 27037.2,4674.2 c 7884.1,-1028.8 12164,16699.4 26449.5,19329.7 3254.4,607.5 5779.3,179.4 8182.7,-342.7 8422.8,-1829.8 20101,-5115.6 36414.4,-9973.9"
         style="fill:none;stroke:#36b2ff;stroke-width:50;stroke-linecap:butt;stroke-linejoin:miter;stroke-miterlimit:10;stroke-dasharray:none;stroke-opacity:1"
         transform="matrix(0.13333333,0,0,-0.13333333,0,4666.6667)" />
      <path
         id="path12"
         d="m -2714.01,1296.1 c 4977.34,7360.6 11859.45,15594 17939.71,14359.5 5946.6,-1182.9 6298.7,-9977.8 11841,-10682.2 7959.2,-1028.7 12245.2,16752 26732,19511 3306.6,638.6 5880.1,229.6 8259.2,-269.3 8459.5,-1773.8 20021.8,-5030.9 35972.5,-9804.4"
         style="fill:none;stroke:#36b2ff;stroke-width:50;stroke-linecap:butt;stroke-linejoin:miter;stroke-miterlimit:10;stroke-dasharray:none;stroke-opacity:1"
         transform="matrix(0.13333333,0,0,-0.13333333,0,4666.6667)" />
      <path
         id="path13"
         d="M -2987.91,1791.2 C 2014.37,9150.9 8912.74,17336.6 15034,16115.1 21088.2,14907 21461.1,5981.5 27096.2,5272.7 35130.5,4244 39422.6,22077.3 54110.6,24964.9 c 3358.8,669.7 5981,280.1 8335.9,-195.9 C 70943,23051.8 82389.1,19822.8 97977,15134.2"
         style="fill:none;stroke:#36b2ff;stroke-width:50;stroke-linecap:butt;stroke-linejoin:miter;stroke-miterlimit:10;stroke-dasharray:none;stroke-opacity:1"
         transform="matrix(0.13333333,0,0,-0.13333333,0,4666.6667)" />
      <path
         id="path14"
         d="M -3261.81,2286.3 C 1765.42,9645.2 8682.5,17795.3 14842.3,16574.6 21006.5,15353.1 21397.8,6285.1 27125.7,5572 c 8109.4,-1028.7 12407.6,16857.2 27296.9,19873.4 3410.9,700.8 6082,330.8 8412.4,-122.5 8533.8,-1659.9 19863.4,-4861.5 35088.6,-9465.3"
         style="fill:none;stroke:#36b2ff;stroke-width:50;stroke-linecap:butt;stroke-linejoin:miter;stroke-miterlimit:10;stroke-dasharray:none;stroke-opacity:1"
         transform="matrix(0.13333333,0,0,-0.13333333,0,4666.6667)" />
      <path
         id="path15"
         d="m -3535.72,2781.5 c 5052.19,7358 11987.99,15472.6 18186.32,14252.7 6274.2,-1234.9 6684,-10445.5 12504.7,-11163 8184.5,-1028.7 12488.7,16909.8 27579.2,20054.7 3463.1,731.9 6183.2,381.9 8489.1,-49.1 C 71795.1,24274.9 83007.7,21100 97870.1,16581"
         style="fill:none;stroke:#36b2ff;stroke-width:50;stroke-linecap:butt;stroke-linejoin:miter;stroke-miterlimit:10;stroke-dasharray:none;stroke-opacity:1"
         transform="matrix(0.13333333,0,0,-0.13333333,0,4666.6667)" />
      <path
         id="path16"
         d="M -3809.62,3276.6 C 1267.51,10633.7 8222.07,18712.9 14458.9,17493.7 20843.1,16245.6 21271.3,6892.4 27184.8,6170.5 c 8259.6,-1028.7 12569.9,16962.4 27861.7,20235.8 3515.2,763.1 6284.3,433.3 8565.6,24.4 8609.5,-1543 19704.9,-4692 34204.6,-9126.3"
         style="fill:none;stroke:#36b2ff;stroke-width:50;stroke-linecap:butt;stroke-linejoin:miter;stroke-miterlimit:10;stroke-dasharray:none;stroke-opacity:1"
         transform="matrix(0.13333333,0,0,-0.13333333,0,4666.6667)" />
      <path
         id="path17"
         d="M -4083.52,3771.7 C 1018.56,11128 7991.88,19171.9 14267.2,17953.2 20761.4,16692 21208,7196 27214.3,6469.8 c 8334.7,-1028.7 12651.1,17015 28144.1,20417 3567.4,794.2 6385.7,484.9 8642.2,97.8 8647.8,-1483.4 19625.8,-4607.3 33762.7,-8956.8"
         style="fill:none;stroke:#36b2ff;stroke-width:50;stroke-linecap:butt;stroke-linejoin:miter;stroke-miterlimit:10;stroke-dasharray:none;stroke-opacity:1"
         transform="matrix(0.13333333,0,0,-0.13333333,0,4666.6667)" />
      <path
         id="path18"
         d="M -4357.42,4266.8 C 769.602,11622.3 7761.71,19630.9 14075.5,18412.7 20679.8,17138.4 21144.7,7499.6 27243.8,6769 c 8409.8,-1028.6 12732.3,17067.7 28426.6,20598.3 3619.6,825.4 6487,536.9 8718.8,171.2 8686.4,-1423 19546.5,-4522.6 33320.7,-8787.3"
         style="fill:none;stroke:#36b2ff;stroke-width:50;stroke-linecap:butt;stroke-linejoin:miter;stroke-miterlimit:10;stroke-dasharray:none;stroke-opacity:1"
         transform="matrix(0.13333333,0,0,-0.13333333,0,4666.6667)" />
      <path
         id="path19"
         d="M -4631.33,4762 C 520.648,12116.5 7531.56,20090 13883.8,18872.2 20598.1,17584.9 21081.5,7803.3 27273.3,7068.3 c 8484.9,-1028.6 12813.5,17120.2 28709,20779.5 3671.8,856.5 6588.5,589.1 8795.4,244.6 C 73503,26730.7 84245,23654.5 97656.5,19474.6"
         style="fill:none;stroke:#36b2ff;stroke-width:50;stroke-linecap:butt;stroke-linejoin:miter;stroke-miterlimit:10;stroke-dasharray:none;stroke-opacity:1"
         transform="matrix(0.13333333,0,0,-0.13333333,0,4666.6667)" />
      <path
         id="path20"
         d="M -4905.23,5257.1 C 271.691,12610.8 7301.41,20549.2 13692.1,19331.7 20516.5,18031.5 21018.2,8106.9 27302.8,7367.6 c 8560,-1028.6 12894.7,17172.8 28991.5,20960.7 3723.9,887.6 6690,641.6 8871.9,318 8764.4,-1299.4 19388.1,-4353.2 32436.9,-8448.3"
         style="fill:none;stroke:#36b2ff;stroke-width:50;stroke-linecap:butt;stroke-linejoin:miter;stroke-miterlimit:10;stroke-dasharray:none;stroke-opacity:1"
         transform="matrix(0.13333333,0,0,-0.13333333,0,4666.6667)" />
      <path
         id="path21"
         d="m -5179.13,5752.2 c 5201.8722,7352.9 12250.42,15256.3 18679.53,14039 6934.5,-1313 7454.5,-11380.6 13831.9,-12124.4 8635.1,-1028.5 12975.9,17225.5 29273.9,21142 3776.1,918.7 6791.7,694.3 8948.6,391.4 8803.7,-1236.3 19308.8,-4268.5 31994.8,-8278.7"
         style="fill:none;stroke:#36b2ff;stroke-width:50;stroke-linecap:butt;stroke-linejoin:miter;stroke-miterlimit:10;stroke-dasharray:none;stroke-opacity:1"
         transform="matrix(0.13333333,0,0,-0.13333333,0,4666.6667)" />
      <path
         id="path22"
         d="m -5453.03,6247.3 c 5226.815,7352 12294.2,15220.5 18761.73,14003.4 7044.6,-1325.7 7583,-11536.5 14053.1,-12284.6 8710.3,-1028.5 13057.1,17278 29556.4,21323.2 3828.2,949.8 6893.3,747.4 9025.1,464.9 C 74786.6,28582 85173,25570.4 97496.2,21644.9"
         style="fill:none;stroke:#36b2ff;stroke-width:50;stroke-linecap:butt;stroke-linejoin:miter;stroke-miterlimit:10;stroke-dasharray:none;stroke-opacity:1"
         transform="matrix(0.13333333,0,0,-0.13333333,0,4666.6667)" />
      <path
         id="path23"
         d="M -5726.94,6742.4 C -475.168,14093.6 6611.07,21927.2 13117,20710.2 20271.7,19371.9 20828.4,9017.9 27391.4,8265.4 36176.7,7236.9 40529.5,25596 57230.1,29769.8 c 3880.4,980.9 6995.1,800.8 9101.7,538.3 8883.2,-1106.9 19150.5,-4099.1 31111,-7939.8"
         style="fill:none;stroke:#36b2ff;stroke-width:50;stroke-linecap:butt;stroke-linejoin:miter;stroke-miterlimit:10;stroke-dasharray:none;stroke-opacity:1"
         transform="matrix(0.13333333,0,0,-0.13333333,0,4666.6667)" />
      <path
         id="path24"
         d="m -6000.84,7237.6 c 5276.719,7350.3 12381.82,15149.1 18926.14,13932.2 7264.8,-1351 7839.8,-11848.3 14495.6,-12605.2 8860.4,-1028.4 13219.4,17383.3 30121.2,21685.6 3932.6,1012.1 7096.8,854.5 9178.3,611.7 8923,-1040.5 19071.2,-4014.3 30669,-7770.2"
         style="fill:none;stroke:#36b2ff;stroke-width:50;stroke-linecap:butt;stroke-linejoin:miter;stroke-miterlimit:10;stroke-dasharray:none;stroke-opacity:1"
         transform="matrix(0.13333333,0,0,-0.13333333,0,4666.6667)" />
      <path
         id="path25"
         d="M -6274.74,7732.7 C -973.078,15082.1 6150.91,22846.2 12733.6,21629.3 20108.6,20265.8 20701.9,9625.1 27450.4,8863.9 36385.9,7835.5 40751,26299.8 57854,30730.7 c 3984.8,1043.3 7198.6,908.4 9254.9,685.2 8963.2,-973.1 18992,-3929.7 30227.1,-7600.8"
         style="fill:none;stroke:#36b2ff;stroke-width:50;stroke-linecap:butt;stroke-linejoin:miter;stroke-miterlimit:10;stroke-dasharray:none;stroke-opacity:1"
         transform="matrix(0.13333333,0,0,-0.13333333,0,4666.6667)" />
      <path
         id="path26"
         d="m -6548.65,8227.8 c 5326.62,7348.6 12469.49,15078 19090.45,13861 7485.2,-1375.9 8096.8,-12160 14938.1,-12925.6 9010.6,-1028.4 13381.7,17488.4 30686.1,22048 4036.9,1074.4 7300.4,962.6 9331.5,758.6 9003.4,-904.5 18912.8,-3845 29785.1,-7431.3"
         style="fill:none;stroke:#36b2ff;stroke-width:50;stroke-linecap:butt;stroke-linejoin:miter;stroke-miterlimit:10;stroke-dasharray:none;stroke-opacity:1"
         transform="matrix(0.13333333,0,0,-0.13333333,0,4666.6667)" />
      <path
         id="path27"
         d="M -6822.55,8722.9 C -1470.98,16070.7 5690.77,23765.5 12350.1,22548.3 19945.5,21160 20575.3,10232.4 27509.4,9462.4 c 9085.7,-1028.3 13463,17541.1 30968.5,22229.3 4089.1,1105.5 7402.3,1017.1 9408.1,832 9043.8,-834.6 18833.6,-3760.2 29343.2,-7261.8"
         style="fill:none;stroke:#36b2ff;stroke-width:50;stroke-linecap:butt;stroke-linejoin:miter;stroke-miterlimit:10;stroke-dasharray:none;stroke-opacity:1"
         transform="matrix(0.13333333,0,0,-0.13333333,0,4666.6667)" />
      <path
         id="path28"
         d="M -7096.45,9218 C -1719.94,16564.9 5463.09,24238.1 12158.4,23007.8 19866.7,21622.2 20512.1,10536 27538.9,9761.7 c 9160.9,-1028.3 13544.1,17593.7 31251,22410.5 4141.2,1136.6 7504.1,1071.8 9484.6,905.4 9084.3,-763.4 18754.4,-3675.5 28901.3,-7092.2"
         style="fill:none;stroke:#36b2ff;stroke-width:50;stroke-linecap:butt;stroke-linejoin:miter;stroke-miterlimit:10;stroke-dasharray:none;stroke-opacity:1"
         transform="matrix(0.13333333,0,0,-0.13333333,0,4666.6667)" />
      <path
         id="path29"
         d="m -7370.35,9713.2 c 5401.46,7346 12603.3,14984.2 19337.05,13754.1 7818.4,-1398.3 8482.1,-12627.6 15601.7,-13406.3 9236,-1028.3 13625.4,17646.2 31533.4,22591.7 4193.5,1167.7 7606,1126.8 9561.3,978.8 9124.8,-690.8 18675.1,-3590.8 28459.2,-6922.7"
         style="fill:none;stroke:#36b2ff;stroke-width:50;stroke-linecap:butt;stroke-linejoin:miter;stroke-miterlimit:10;stroke-dasharray:none;stroke-opacity:1"
         transform="matrix(0.13333333,0,0,-0.13333333,0,4666.6667)" />
      <path
         id="path30"
         d="M -7644.26,10208.3 C -2217.85,17553.5 5002.8,25156.6 11775,23926.8 c 7928.5,-1411 8610.5,-12783.5 15822.9,-13566.6 9311.1,-1028.2 13706.5,17698.9 31815.9,22773 4245.6,1198.8 7707.9,1182.1 9637.8,1052.2 9165.4,-616.9 18595.9,-3506.1 28017.3,-6753.2"
         style="fill:none;stroke:#36b2ff;stroke-width:50;stroke-linecap:butt;stroke-linejoin:miter;stroke-miterlimit:10;stroke-dasharray:none;stroke-opacity:1"
         transform="matrix(0.13333333,0,0,-0.13333333,0,4666.6667)" />
      <path
         id="path31"
         d="M -7918.16,10703.4 C -2466.8,18047.7 4772.65,25615.9 11583.3,24386.3 19621.8,22962.7 20322.3,11447 27627.5,10659.5 37013.6,9631.3 41415.1,28411 59725.8,33613.7 c 4297.7,1229.9 7809.7,1237.6 9714.3,1125.6 9206,-541.5 18516.8,-3421.4 27575.4,-6583.7"
         style="fill:none;stroke:#36b2ff;stroke-width:50;stroke-linecap:butt;stroke-linejoin:miter;stroke-miterlimit:10;stroke-dasharray:none;stroke-opacity:1"
         transform="matrix(0.13333333,0,0,-0.13333333,0,4666.6667)" />
      <path
         id="path32"
         d="M -8192.06,11198.5 C -2715.76,18542 4542.51,26075.2 11391.6,24845.9 19540.2,23409.5 20259,11750.6 27657,10958.8 c 9461.2,-1028.2 13868.8,17804.1 32380.7,23135.3 4349.9,1261.2 7911.6,1293.5 9791,1199.1 9246.5,-464.6 18437.5,-3336.6 27133.4,-6414.2"
         style="fill:none;stroke:#36b2ff;stroke-width:50;stroke-linecap:butt;stroke-linejoin:miter;stroke-miterlimit:10;stroke-dasharray:none;stroke-opacity:1"
         transform="matrix(0.13333333,0,0,-0.13333333,0,4666.6667)" />
      <path
         id="path33"
         d="m -8465.96,11693.7 c 5501.25,7342.5 12778.32,14840.7 19665.86,13611.7 8258.7,-1449 8995.8,-13251.2 16486.6,-14047.4 9536.3,-1028.1 13950,17856.7 32663.1,23316.6 4402.1,1292.3 8013.5,1349.5 9867.6,1272.5 9287,-386 18358.3,-3251.9 26691.5,-6244.7"
         style="fill:none;stroke:#36b2ff;stroke-width:50;stroke-linecap:butt;stroke-linejoin:miter;stroke-miterlimit:10;stroke-dasharray:none;stroke-opacity:1"
         transform="matrix(0.13333333,0,0,-0.13333333,0,4666.6667)" />
      <path
         id="path34"
         d="m -8739.87,12188.8 c 5526.21,7341.7 12822.08,14804.9 19748.07,13576.1 8368.8,-1461.7 9124.3,-13407 16707.8,-14207.6 9611.4,-1028.2 14031.2,17909.3 32945.6,23497.8 4454.2,1323.4 8115.3,1405.8 9944.2,1345.9 9327.3,-305.9 18279,-3167.2 26249.5,-6075.1"
         style="fill:none;stroke:#36b2ff;stroke-width:50;stroke-linecap:butt;stroke-linejoin:miter;stroke-miterlimit:10;stroke-dasharray:none;stroke-opacity:1"
         transform="matrix(0.13333333,0,0,-0.13333333,0,4666.6667)" />
      <path
         id="path35"
         d="m -9013.77,12683.9 c 5551.15,7340.9 12865.84,14769 19830.27,13540.5 8478.9,-1474.4 9252.7,-13562.9 16929,-14367.8 9686.6,-1028.2 14112.4,17961.9 33228.1,23679 4506.4,1354.5 8217,1462.4 10020.7,1419.3 9367.5,-224 18199.9,-3082.5 25807.5,-5905.6"
         style="fill:none;stroke:#36b2ff;stroke-width:50;stroke-linecap:butt;stroke-linejoin:miter;stroke-miterlimit:10;stroke-dasharray:none;stroke-opacity:1"
         transform="matrix(0.13333333,0,0,-0.13333333,0,4666.6667)" />
      <path
         id="path36"
         d="m -9287.67,13179 c 5576.1,7340 12909.59,14733.2 19912.47,13504.9 8589,-1487 9381.1,-13718.7 17150.2,-14528.1 9761.7,-1028.1 14193.6,18014.5 33510.5,23860.3 4558.6,1385.6 8319.1,1449.5 10097.3,1492.7 9405.9,228.6 18120.7,-2997.8 25365.6,-5736.1"
         style="fill:none;stroke:#36b2ff;stroke-width:50;stroke-linecap:butt;stroke-linejoin:miter;stroke-miterlimit:10;stroke-dasharray:none;stroke-opacity:1"
         transform="matrix(0.13333333,0,0,-0.13333333,0,4666.6667)" />
      <path
         id="path37"
         d="m -9561.57,13674.2 c 5601.04,7339.1 12953.35,14697.2 19994.67,13469.2 8699.1,-1499.7 9509.6,-13874.6 17371.4,-14688.3 9836.8,-1028.1 14274.8,18067.1 33793,24041.5 4610.7,1416.7 8421.2,1513.6 10173.9,1566.1 9443.3,282.6 18041.4,-2913 24923.6,-5566.6"
         style="fill:none;stroke:#36b2ff;stroke-width:50;stroke-linecap:butt;stroke-linejoin:miter;stroke-miterlimit:10;stroke-dasharray:none;stroke-opacity:1"
         transform="matrix(0.13333333,0,0,-0.13333333,0,4666.6667)" />
      <path
         id="path38"
         d="m -9835.48,14169.3 c 5626,7338.3 12997.11,14661.4 20076.88,13433.6 8809.2,-1512.3 9638,-14030.5 17592.6,-14848.5 9911.9,-1028.1 14356,18119.7 34075.4,24222.7 4662.9,1447.8 8523.2,1578.5 10250.5,1639.5 9481.1,334.6 17962.2,-2828.3 24481.7,-5397.1"
         style="fill:none;stroke:#36b2ff;stroke-width:50;stroke-linecap:butt;stroke-linejoin:miter;stroke-miterlimit:10;stroke-dasharray:none;stroke-opacity:1"
         transform="matrix(0.13333333,0,0,-0.13333333,0,4666.6667)" />
      <path
         id="path39"
         d="m -10109.4,14664.4 c 5650.97,7337.4 13040.88,14625.5 20159,13398 8919.4,-1525 9766.5,-14186.3 17814,-15008.7 9986.9,-1028.1 14437.1,18172.2 34357.8,24403.9 4715,1479 8624.8,1644.1 10327,1712.9 9519.2,384.6 17883.1,-2743.6 24039.8,-5227.6"
         style="fill:none;stroke:#36b2ff;stroke-width:50;stroke-linecap:butt;stroke-linejoin:miter;stroke-miterlimit:10;stroke-dasharray:none;stroke-opacity:1"
         transform="matrix(0.13333333,0,0,-0.13333333,0,4666.6667)" />
      <path
         id="path40"
         d="m -10383.3,15159.5 c 5675.91,7336.6 13084.64,14589.7 20241.24,13362.4 9029.46,-1537.7 9894.96,-14342.2 18035.16,-15169 10062,-1028 14518.3,18224.9 34640.2,24585.2 4767.3,1510.1 8725.1,1748.8 10403.7,1786.3 9564.9,213.6 17803.8,-2658.9 23597.8,-5058.1"
         style="fill:none;stroke:#36b2ff;stroke-width:50;stroke-linecap:butt;stroke-linejoin:miter;stroke-miterlimit:10;stroke-dasharray:none;stroke-opacity:1"
         transform="matrix(0.13333333,0,0,-0.13333333,0,4666.6667)" />
      <path
         id="path41"
         d="M -10657.2,15654.6 C -4956.34,22990.4 2471.19,30208.4 9666.23,28981.5 18805.8,27431.1 19689.6,14483.4 27922.6,13652.2 c 10137.2,-1028 14599.5,18277.5 34922.7,24766.3 4819.4,1541.3 8826.4,1806.9 10480.2,1859.8 9603.3,307.3 17724.6,-2574.2 23155.9,-4888.5"
         style="fill:none;stroke:#36b2ff;stroke-width:50;stroke-linecap:butt;stroke-linejoin:miter;stroke-miterlimit:10;stroke-dasharray:none;stroke-opacity:1"
         transform="matrix(0.13333333,0,0,-0.13333333,0,4666.6667)" />
      <path
         id="path42"
         d="M -10931.1,16149.8 C -5205.3,23484.6 2241.04,30667.7 9474.52,29441 18724.2,27877.9 19626.3,14787 27952.1,13951.5 c 10212.3,-1028 14680.7,18330.1 35205.1,24947.5 4871.6,1572.4 8927.7,1865.1 10556.8,1933.2 9641.2,403.2 17645.4,-2489.4 22713.9,-4719"
         style="fill:none;stroke:#36b2ff;stroke-width:50;stroke-linecap:butt;stroke-linejoin:miter;stroke-miterlimit:10;stroke-dasharray:none;stroke-opacity:1"
         transform="matrix(0.13333333,0,0,-0.13333333,0,4666.6667)" />
      <path
         id="path43"
         d="m -11205,16644.9 c 5750.74,7334 13215.9,14482 20487.82,13255.6 C 18642.6,28324.8 19563,15090.6 27981.6,14250.7 38269,13222.8 42743.5,32633.4 63469.2,39379.5 68392.9,40983 72498,41303 74102.6,41386.1 c 9678.5,501.4 17566.1,-2404.7 22271.9,-4549.5"
         style="fill:none;stroke:#36b2ff;stroke-width:50;stroke-linecap:butt;stroke-linejoin:miter;stroke-miterlimit:10;stroke-dasharray:none;stroke-opacity:1"
         transform="matrix(0.13333333,0,0,-0.13333333,0,4666.6667)" />
      <path
         id="path44"
         d="M -11478.9,17140 C -5703.21,24473.2 1780.75,31586.2 9091.11,30360 18561,28771.6 19499.8,15394.3 28011.1,14550 c 10362.5,-1027.9 14843.1,18435.3 35770,25310 4975.9,1634.6 9129.9,1982.1 10710,2080 9715.2,602 17487,-2320 21830,-4380"
         style="fill:none;stroke:#36b2ff;stroke-width:50;stroke-linecap:butt;stroke-linejoin:miter;stroke-miterlimit:10;stroke-dasharray:none;stroke-opacity:1"
         transform="matrix(0.13333333,0,0,-0.13333333,0,4666.6667)" />
    </g>
  </g>
</svg>
